<?xml version="1.0" encoding="UTF-8" standalone="no"?>
<svg width="1920" height="1280" viewBox="0 0 1920 1280" version="1.2" id="SVGRoot" xmlns="http://www.w3.org/2000/svg">
	<defs>
		<pattern id="sky-pattern" patternUnits="userSpaceOnUse" width="100" height="100" patternTransform="scale(0.3)">
			<rect id="chevrons-bg" style="fill: #8080ff;" width="100" height="100" x="0" y="0" />
			<path id="chevrons" style="fill: #6e6ef7;" d="M 100,100 V 50 L 50,100 Z M 50,0 V 50 L 100,0 Z M 0,0 50,50 v 50 L 0,50 Z" />
		</pattern>
		<pattern id="grass-pattern" patternUnits="userSpaceOnUse" width="20" height="20">
			<rect id="pgrams-bg" style="fill: #80e51a;" width="20" height="20" x="0" y="0" />
			<path id="parallelogram" style="fill: #66cc00;" d="M 10,10 H 20 L 15,20 H 5 Z M 5,0 H 15 L 10,10 H 0 Z" />
		</pattern>
	</defs>
	<rect id="sky" style="fill: url(#sky-pattern);" width="1920" height="1280" x="0" y="0" />
	<path id="hitbox" style="fill: url(#grass-pattern);" d="M -100,0 H 0 v 960 h 2020 v 320 H -100 Z" />
	<circle id="spawnpoint" cx="320" cy="960" />
	<text id="dialogue" style="line-height: 1.25; font: 48px Georgia; white-space: pre-line;" x="960" y="480">welcome to goat game
you are the goat
move around and do stuff idk
i’ll finish this up soon
i hope that one day,
it will be the game of all time</text>
	<text id="level-name" style="font: 500 64px Raleway;" x="80" y="120">1. <tspan style="font-style: italic;">“It will be the game of all time”</tspan></text>
</svg>