<?xml version="1.0" encoding="UTF-8" standalone="no"?>
<svg width="1920" height="1280" viewBox="0 0 1920 1280" version="1.2" id="SVGRoot" xmlns="http://www.w3.org/2000/svg">
	<defs>
		<pattern id="sky-pattern" patternUnits="userSpaceOnUse" width="100" height="100" patternTransform="scale(0.3)">
			<rect id="chevrons-bg" style="fill: #8080ff;" width="100" height="100" x="0" y="0" />
			<path id="chevrons" style="fill: #6e6ef7;" d="M 100,100 V 50 L 50,100 Z M 50,0 V 50 L 100,0 Z M 0,0 50,50 v 50 L 0,50 Z" />
		</pattern>
		<pattern id="grass-pattern" patternUnits="userSpaceOnUse" width="20" height="20">
			<rect id="pgrams-bg" style="fill: #80e51a;" width="20" height="20" x="0" y="0" />
			<path id="parallelogram" style="fill: #66cc00;" d="M 10,10 H 20 L 15,20 H 5 Z M 5,0 H 15 L 10,10 H 0 Z" />
		</pattern>
	</defs>
	<rect id="sky" style="fill: url(#sky-pattern);" width="1920" height="1280" x="0" y="0" />
	<path id="hitbox" style="fill: url(#grass-pattern);" d="M -100,640 h 580 V 1280 h -580 Z M 960,960 h 480 V 1280 h -480 Z" />
	<circle id="spawnpoint" cx="100" cy="640" />
	<text id="dialogue" style="font: 48px Georgia;" x="480" y="480">don’t fall lol</text>
</svg>