<?xml version="1.0" encoding="UTF-8" standalone="no"?>
<svg width="200" height="160" viewBox="0 0 200 160" version="1.2" id="SVGRoot" xmlns="http://www.w3.org/2000/svg">
    <path id="horn-b" style="fill: #333333; stroke: #000000; stroke-width: 2; stroke-linejoin: round;" d="m 152.2,32.2 c -2.9,-16.5 -23.1,-17.3 -23.1,-17.3 0,0 27.9,-4.9 31.5,16.1 -2.2,1.9 -5.1,2.1 -8.5,1.3 z" />
    <path id="shadow-goat" style="fill: #cccccc;" d="M 40,158 V 92 c 0,-45.8 65.6,-8.8 86.4,-35.6 10.4,-13.8 17,-31 32.2,-26.4 12.8,2.6 34.4,10.8 30.8,27 -3.6,16.2 -21.5,0.9 -28.2,8 -10.5,11.1 -5.7,30.1 -10.2,44.8 -1.9,6.2 -7,10.2 -7,18.2 v 30 h -16 v -30 c 0,-20 -72,-20 -72,0 v 30 z" />
    <rect id="shadow-shoe-b" style="fill: #333333;" width="16" height="6" x="40" y="152" />
    <rect id="shadow-shoe-f" style="fill: #333333;" width="16" height="6" x="128" y="152" />
    <path id="goat" style="fill: #f2f2f2;" d="M 30,160 V 90 c 0,-45.8 67.6,-6.7 88.3,-33.6 10.6,-13.8 24.2,-30.9 39.3,-26.4 12.8,2.6 34.4,10.9 30.8,27 -3.6,16.1 -21.2,1.2 -28.1,8.1 -11.6,11.4 -7.3,32 -14.3,46.7 -3.1,6.6 -12,10.1 -12,18.2 v 30 h -16 v -30 c 0,-20 -72,-20 -72,0 v 30 z" />
    <rect id="shoe-b" style="fill: #333333;" width="16" height="6" x="30" y="154" />
    <rect id="shoe-f" style="fill: #333333;" width="16" height="6" x="118" y="154" />
    <g id="details" style="stroke: #000000; stroke-width: 2; stroke-linecap: round; stroke-linejoin: round;">
        <path id="tail" style="fill: #f2f2f2;" d="M 36.7,72.7 C 28.1,78.9 10,78 10,78 c 0,0 10.5,8 20.6,5.3" />
        <path id="horn-f" style="fill: #333333;" d="m 147.2,34.2 c -2.9,-16.5 -23.1,-17.3 -23.1,-17.3 0,0 27.9,-4.9 31.5,16.1 -2.2,1.9 -5.1,2.1 -8.5,1.3 z" />
        <path id="eye" d="m 161.5,43.5 c -0.1,-2.5 7,-2.1 6.1,0.7 -0.9,2.8 -6,1.8 -6.1,-0.7 z" />
        <path id="mouth" d="m 174.9,57 c 5.5,3.6 6.8,1.4 12.7,2.6" />
        <path id="ear" style="fill: #f2f2f2;" d="m 147.6,38.3 c -12.5,-12.4 -20.1,-1.8 -7.4,7.8" />
    </g>
</svg>
